<?xml version="1.0" encoding="utf-8"?>
<!-- Generator: Adobe Illustrator 17.0.0, SVG Export Plug-In . SVG Version: 6.00 Build 0)  -->
<!DOCTYPE svg PUBLIC "-//W3C//DTD SVG 1.1//EN" "http://www.w3.org/Graphics/SVG/1.1/DTD/svg11.dtd">
<svg version="1.1" id="Layer_1" xmlns="http://www.w3.org/2000/svg" xmlns:xlink="http://www.w3.org/1999/xlink" x="0px" y="0px"
	 width="291.5px" height="106.301px" viewBox="0 0 291.5 106.301" enable-background="new 0 0 291.5 106.301" xml:space="preserve">
<g id="bg" display="none">
</g>
<g id="Layer_1_1_" display="none">
	<line display="inline" fill="none" stroke="#B3B3B4" stroke-miterlimit="10" x1="308.5" y1="82" x2="-14.5" y2="82"/>
	
		<image display="inline" overflow="visible" opacity="0.2" enable-background="new    " width="2357" height="3186" xlink:href="D96698FB4955197C.jpeg"  transform="matrix(1.080373e-11 0.0802 0.0802 -1.080373e-11 12.9452 -35.5)">
	</image>
	<text transform="matrix(1 0 0 1 463.9844 -17.0474)" display="inline" font-family="'Arial-BoldMT'" font-size="9.4338">Style Tile</text>
	<text transform="matrix(1 0 0 1 463.3623 -6.9394)" display="inline" font-family="'Arial-ItalicMT'" font-size="8.0861">version: 1.0</text>
	<circle display="inline" fill="#CC6500" cx="376.293" cy="-80.476" r="8.932"/>
	<circle display="inline" fill="#CC6500" cx="399.935" cy="-80.476" r="8.932"/>
	<circle display="inline" fill="#CC6500" cx="423.578" cy="-80.476" r="8.932"/>
	<path display="inline" fill="#FFFFFF" d="M421.599-84.72c0.376-0.08,0.753-0.12,1.125-0.12h2.632l-0.813,0.476h-0.813
		c0.284,0.181,0.505,0.434,0.662,0.758c0.156,0.325,0.234,0.665,0.234,1.018c0,0.297-0.046,0.561-0.138,0.792
		s-0.205,0.417-0.337,0.557c-0.134,0.141-0.265,0.27-0.398,0.388c-0.133,0.119-0.245,0.241-0.338,0.368
		c-0.092,0.126-0.137,0.262-0.137,0.406c0,0.103,0.032,0.206,0.099,0.307c0.067,0.1,0.152,0.197,0.259,0.289
		c0.106,0.092,0.224,0.189,0.352,0.289c0.129,0.101,0.258,0.213,0.386,0.335c0.129,0.122,0.246,0.254,0.352,0.397
		c0.107,0.143,0.194,0.313,0.26,0.512s0.1,0.412,0.1,0.642c0,0.642-0.281,1.208-0.843,1.698c-0.611,0.526-1.454,0.789-2.53,0.789
		c-0.236,0-0.477-0.021-0.72-0.06c-0.243-0.041-0.487-0.108-0.734-0.202c-0.247-0.095-0.465-0.211-0.654-0.349
		c-0.189-0.139-0.343-0.318-0.464-0.536c-0.12-0.218-0.181-0.463-0.181-0.732c0-0.245,0.074-0.516,0.223-0.813
		c0.129-0.257,0.321-0.479,0.578-0.665c0.257-0.187,0.548-0.329,0.874-0.428c0.325-0.098,0.636-0.17,0.933-0.216
		c0.296-0.046,0.598-0.073,0.903-0.081c-0.258-0.333-0.386-0.632-0.386-0.897c0-0.049,0.004-0.096,0.012-0.141
		c0.008-0.047,0.018-0.086,0.03-0.118s0.027-0.075,0.048-0.129s0.034-0.097,0.042-0.129c-0.161,0.02-0.302,0.03-0.422,0.03
		c-0.597,0-1.11-0.198-1.537-0.591c-0.428-0.393-0.642-0.887-0.642-1.481c0-0.563,0.19-1.065,0.572-1.509
		C420.571-84.312,421.04-84.596,421.599-84.72L421.599-84.72z M424.235-76.79c0-0.085-0.008-0.165-0.027-0.244
		c-0.018-0.078-0.037-0.15-0.056-0.217c-0.021-0.066-0.055-0.135-0.105-0.207c-0.051-0.072-0.093-0.134-0.127-0.184
		c-0.035-0.05-0.087-0.109-0.159-0.177c-0.073-0.069-0.128-0.12-0.166-0.154c-0.039-0.034-0.103-0.085-0.194-0.153
		c-0.09-0.068-0.152-0.114-0.186-0.138s-0.1-0.07-0.199-0.138c-0.099-0.069-0.159-0.11-0.183-0.127
		c-0.069-0.008-0.169-0.011-0.301-0.011c-0.217,0-0.43,0.013-0.639,0.041s-0.425,0.079-0.65,0.151s-0.421,0.166-0.591,0.278
		c-0.167,0.112-0.307,0.262-0.415,0.451c-0.108,0.189-0.163,0.404-0.163,0.644c0,0.273,0.071,0.517,0.215,0.732
		c0.141,0.215,0.328,0.383,0.559,0.505c0.231,0.123,0.473,0.213,0.726,0.274c0.252,0.06,0.508,0.09,0.765,0.09
		c0.236,0,0.462-0.024,0.677-0.075c0.215-0.05,0.417-0.128,0.605-0.234c0.188-0.106,0.339-0.254,0.449-0.443
		C424.18-76.316,424.235-76.537,424.235-76.79z M423.513-81.98c0-0.241-0.033-0.498-0.099-0.768
		c-0.067-0.271-0.162-0.532-0.284-0.785c-0.122-0.253-0.291-0.462-0.505-0.626c-0.215-0.165-0.454-0.247-0.72-0.247
		c-0.373,0-0.662,0.138-0.867,0.416c-0.205,0.277-0.307,0.609-0.307,0.993c0,0.189,0.023,0.388,0.07,0.595
		c0.045,0.209,0.117,0.418,0.213,0.626c0.097,0.209,0.209,0.397,0.338,0.563c0.129,0.167,0.285,0.302,0.469,0.406
		s0.38,0.157,0.584,0.157c0.389,0,0.672-0.122,0.846-0.365C423.425-81.256,423.513-81.578,423.513-81.98z M428.98-83.299v0.77
		h-1.542v1.542h-0.77v-1.542h-1.542v-0.77h1.542v-1.542h0.77v1.542H428.98z"/>
	<path display="inline" fill="#FFFFFF" d="M381.004-83.603c0.483-0.052,0.963-0.182,1.446-0.388
		c-0.347,0.507-0.766,0.939-1.259,1.295c0.005,0.073,0.007,0.182,0.007,0.326c0,0.673-0.097,1.345-0.293,2.014
		c-0.196,0.671-0.496,1.313-0.898,1.93c-0.4,0.616-0.878,1.161-1.432,1.634c-0.554,0.474-1.221,0.851-2.002,1.134
		c-0.781,0.281-1.618,0.423-2.508,0.423c-1.402,0-2.685-0.376-3.849-1.126c0.181,0.021,0.383,0.03,0.605,0.03
		c1.164,0,2.201-0.357,3.113-1.071c-0.543-0.011-1.031-0.177-1.46-0.501s-0.725-0.736-0.885-1.238
		c0.172,0.025,0.33,0.039,0.474,0.039c0.222,0,0.443-0.028,0.66-0.085c-0.58-0.119-1.059-0.407-1.44-0.866s-0.571-0.99-0.571-1.595
		v-0.032c0.353,0.196,0.73,0.303,1.134,0.318c-0.342-0.227-0.614-0.525-0.815-0.893c-0.203-0.367-0.303-0.765-0.303-1.195
		c0-0.456,0.114-0.878,0.342-1.266c0.626,0.771,1.387,1.389,2.285,1.852c0.899,0.463,1.86,0.72,2.884,0.772
		c-0.041-0.196-0.061-0.388-0.061-0.575c0-0.694,0.244-1.284,0.733-1.774c0.49-0.489,1.081-0.732,1.774-0.732
		c0.724,0,1.335,0.263,1.833,0.791c0.563-0.108,1.094-0.31,1.591-0.605C381.916-84.39,381.549-83.929,381.004-83.603L381.004-83.603
		z"/>
	<path display="inline" fill="#45746F" d="M387.465,25.463c6.33,0,11.461-5.131,11.461-11.461c0-6.329-5.131-11.461-11.461-11.461
		c-6.329,0-11.461,5.131-11.461,11.461S381.135,25.463,387.465,25.463"/>
	<path display="inline" fill="#FFFFFF" d="M387.465,8.242c-3.165,0-5.731,2.565-5.731,5.73c0,2.346,1.411,4.362,3.431,5.248
		c-0.017-0.4-0.003-0.881,0.099-1.316c0.11-0.465,0.737-3.122,0.737-3.122s-0.183-0.366-0.183-0.906c0-0.85,0.492-1.484,1.105-1.484
		c0.521,0,0.773,0.392,0.773,0.86c0,0.524-0.334,1.308-0.506,2.033c-0.144,0.608,0.305,1.104,0.904,1.104
		c1.086,0,1.817-1.394,1.817-3.046c0-1.256-0.846-2.196-2.384-2.196c-1.738,0-2.821,1.296-2.821,2.744
		c0,0.499,0.147,0.852,0.377,1.124c0.106,0.126,0.121,0.176,0.083,0.32c-0.027,0.105-0.09,0.359-0.117,0.46
		c-0.038,0.145-0.156,0.197-0.287,0.143c-0.801-0.327-1.174-1.204-1.174-2.189c0-1.628,1.372-3.58,4.095-3.58
		c2.188,0,3.628,1.584,3.628,3.283c0,2.248-1.25,3.927-3.092,3.927c-0.618,0-1.2-0.334-1.399-0.714c0,0-0.333,1.32-0.403,1.575
		c-0.121,0.442-0.359,0.883-0.577,1.227c0.515,0.152,1.06,0.235,1.624,0.235c3.165,0,5.73-2.566,5.73-5.73
		C393.195,10.807,390.63,8.242,387.465,8.242"/>
	<path display="inline" fill="#45746F" d="M414.07,25.463c6.329,0,11.461-5.131,11.461-11.461c0-6.329-5.132-11.461-11.461-11.461
		s-11.461,5.131-11.461,11.461S407.74,25.463,414.07,25.463"/>
	<path display="inline" fill="#FFFFFF" d="M411.305,12.062h1.185V10.91c0-0.508,0.013-1.291,0.382-1.776
		c0.389-0.514,0.922-0.863,1.839-0.863c1.495,0,2.124,0.213,2.124,0.213l-0.296,1.755c0,0-0.494-0.143-0.954-0.143
		c-0.461,0-0.874,0.165-0.874,0.626v1.338h1.89l-0.132,1.715h-1.758v5.956h-2.221v-5.956h-1.185V12.062z"/>
	<path display="inline" fill="#45746F" d="M440.676,25.463c6.328,0,11.461-5.131,11.461-11.461c0-6.329-5.132-11.46-11.461-11.46
		c-6.33,0-11.462,5.131-11.462,11.46S434.346,25.463,440.676,25.463"/>
	<g display="inline">
		<circle fill="#FFFFFF" cx="443.881" cy="14.002" r="2.525"/>
		<circle fill="#FFFFFF" cx="437.469" cy="14.002" r="2.524"/>
	</g>
	<path display="inline" fill="#45746F" d="M467.281,26.019c6.33,0,11.461-5.132,11.461-11.461s-5.131-11.46-11.461-11.46
		s-11.461,5.131-11.461,11.46S460.95,26.019,467.281,26.019"/>
	<path display="inline" fill="#FFFFFF" d="M470.797,8.828h-7.031c-1.221,0-2.215,0.993-2.215,2.215v2.339v4.692
		c0,1.221,0.994,2.215,2.215,2.215h7.031c1.221,0,2.215-0.993,2.215-2.215v-4.692v-2.339C473.012,9.821,472.019,8.828,470.797,8.828
		z M471.433,10.149l0.253-0.001V10.4v1.69l-1.937,0.006l-0.007-1.943L471.433,10.149z M465.647,13.382
		c0.367-0.508,0.962-0.841,1.635-0.841s1.269,0.333,1.635,0.841c0.24,0.332,0.382,0.737,0.382,1.176
		c0,1.112-0.905,2.017-2.018,2.017c-1.112,0-2.017-0.905-2.017-2.017C465.265,14.119,465.408,13.713,465.647,13.382z
		 M471.896,18.073c0,0.606-0.492,1.098-1.098,1.098h-7.031c-0.606,0-1.098-0.492-1.098-1.098v-4.692h1.711
		c-0.148,0.364-0.231,0.76-0.231,1.176c0,1.728,1.406,3.134,3.134,3.134s3.134-1.406,3.134-3.134c0-0.416-0.084-0.813-0.231-1.176
		h1.711v4.692H471.896z"/>
	<path display="inline" fill="#45746F" d="M493.885,25.582c6.33,0,11.461-5.132,11.461-11.461s-5.13-11.46-11.461-11.46
		c-6.33,0-11.461,5.131-11.461,11.46C482.425,20.45,487.555,25.582,493.885,25.582"/>
	<path display="inline" fill="#FFFFFF" d="M490.678,18.914h-2.234v-7.149h2.234V18.914z M489.504,10.871h-0.016
		c-0.808,0-1.333-0.546-1.333-1.239c0-0.706,0.54-1.241,1.364-1.241s1.331,0.534,1.347,1.239
		C490.866,10.323,490.343,10.871,489.504,10.871z M499.615,18.914h-2.533v-3.7c0-0.968-0.396-1.629-1.267-1.629
		c-0.667,0-1.037,0.446-1.209,0.876c-0.064,0.154-0.055,0.369-0.055,0.584v3.868h-2.509c0,0,0.033-6.553,0-7.149h2.509v1.122
		c0.148-0.491,0.95-1.191,2.23-1.191c1.587,0,2.835,1.029,2.835,3.243v3.976H499.615z"/>
	<g display="inline">
		<rect x="117.5" y="72.5" fill="#FFFFFF" width="69" height="19"/>
		<text transform="matrix(1 0 0 1 123.2051 87.7847)" font-family="'AmaticSC-Regular'" font-size="16.1722">Susan Crozier</text>
	</g>
	<path display="inline" fill="#FFFFFF" d="M251.888,35.556c-1.149-5.48-0.894-10.081,0.428-14.471
		c0.139-0.463,0.504-1.175,0.621-1.088c0.347,0.26,0.797,0.775,0.891,1.346c0.205,1.248,0.381,2.649,0.275,3.886
		C253.799,28.769,252.888,31.889,251.888,35.556z"/>
	<path display="inline" fill="#FFFFFF" d="M113.966,42.461c-0.222-2.803,0.027-5.383,1.035-7.508c0.191-0.402,0.61-0.44,0.923-0.647
		c0.059,0.549,0.226,1.151,0.161,1.637C115.746,38.46,114.94,40.508,113.966,42.461z"/>
</g>
<g id="font">
	<g>
		<path fill="#FFFFFF" d="M245.188,62.014l1.026,8.308c0.072,0.581,0.148,1.162,0.224,1.742c0.211,1.613,0.41,3.137,0.509,4.611
			c0.241,3.607,0.444,7.302,0.641,10.875c0.125,2.271,0.25,4.542,0.385,6.812c0.09,1.52,0.264,2.84,0.531,4.036
			c1.637,7.334,6.939,7.904,8.524,7.904c0.884,0,1.77-0.143,2.636-0.426c4.022-1.314,6.542-5.61,6.271-10.689
			c-0.127-2.371-0.335-4.851-0.638-7.58c-0.12-1.085-0.301-2.096-0.46-2.988c-0.123-0.69-0.239-1.341-0.311-1.928
			c-0.353-2.896-0.692-5.862-1.019-8.73c-0.187-1.641-0.375-3.282-0.566-4.921c-0.005-0.059-0.011-0.117-0.018-0.178l-0.647-5.75
			l-5.769-0.446c-0.986-0.076-1.973-0.136-2.96-0.19L245.188,62.014L245.188,62.014z"/>
	</g>
	<path fill="#FFFFFF" d="M57.781,55.246l-5.806,3.43c-0.399,0.235-0.814,0.423-1.235,0.556l-4.178,1.326l0.768,4.315
		c0.401,2.254,0.309,4.512,0.193,7.371l-0.026,0.641c-0.081,2.036-0.502,3.584-1.41,5.176c-1.34,2.35-2.86,3.35-4.729,4.129
		c-0.109,0.045-0.181,0.071-0.224,0.085c-0.121-0.019-0.5-0.099-1.351-0.433c-1.761-0.691-2.496-1.293-2.653-1.54
		c-1.075-1.693-1.302-2.304-2.053-5.677c-0.295-1.962-0.838-3.755-1.282-5.111c-0.811-2.474-3.178-4.202-5.757-4.202h-0.106
		L27.8,65.317c-1.725,0.074-3.294,0.871-4.421,2.245c-1.404,1.713-1.97,4.228-1.553,6.898c0.324,2.074,0.745,4.061,1.151,5.982
		c0.169,0.797,0.337,1.594,0.499,2.396c0.635,3.157,1.971,5.77,4.085,7.988c0.324,0.34,0.647,0.683,0.966,1.036
		c3.429,3.785,7.751,5.786,12.499,5.786c0.266,0,0.531-0.006,0.796-0.019l0.39-0.018l0.382-0.079c0.28-0.058,0.538-0.105,0.784-0.15
		c1.278-0.235,2.727-0.501,4.818-1.546c1.298-0.649,2.181-1.302,2.958-1.92c2.512-1.73,4.665-4.386,6.401-7.899
		c3.577-7.235,4.139-14.705,1.821-24.22L57.781,55.246L57.781,55.246z"/>
	<g>
		<path d="M254.967,59.302c0.516-0.56,0.844-0.834,1.119-1.228c2.17-2.355,3.757-3.501,6.528-5.282
			c1.138-0.693,0.852-0.504,1.909-1.591c0.662-0.68,0.91-1.483,0.799-2.794c-0.014-0.164,0.012-0.338-0.003-0.501
			c-0.606-6.393,1.535-9.85,4.04-12.809c1.009-1.193,2.078-2.314,3.424-2.084c1.65,0.283,3.047,2.879,2.982,5.888
			c-0.051,2.376-0.382,4.616-1.263,6.425c-0.539,1.106-1.074,2.231-1.67,3.231c-0.592,0.993-1.258,1.841-2.037,2.962
			c1.48,0.65,2.838,1.185,4.295,1.095c4.011-0.25,7.221-3.485,10.102-8.098c0.301-0.483,0.665-0.836,0.999-1.252
			c0.47-0.585,1.003-0.67,1.365,0.165c0.283,0.654,0.487,1.601,0.493,2.41c0.005,0.642-0.293,1.345-0.54,1.896
			c-1.74,3.888-4.012,6.528-6.44,8.766c-0.437,0.403-0.939,0.68-1.429,0.787c-2.212,0.483-4.43,1.369-6.675,0.448
			c-1.149-0.472-2.296-1.276-3.344-2.29c-0.944-0.913-1.662-1.07-3.048-0.328c-4.454,2.128-5.493,2.758-8.601,6.463
			c-0.113,0.135-0.209,0.355-0.333,0.419c-1.651,2.076-2.051,4.44-1.664,7.749c0.536,4.595,1.042,9.201,1.601,13.788
			c0.199,1.633,0.581,3.205,0.763,4.841c0.263,2.376,0.477,4.778,0.605,7.182c0.099,1.863-0.578,3.375-1.456,3.662
			c-1.017,0.332-1.709-0.359-2.153-2.349c-0.206-0.922-0.317-1.94-0.375-2.927c-0.352-5.911-0.635-11.833-1.029-17.737
			c-0.161-2.406-0.538-4.778-0.823-7.163c-0.119-0.999-0.46-1.205-0.921-0.799c-0.284,0.25-0.566,0.531-0.817,0.875
			c-1.239,1.702-2.692,2.536-4.163,3.327c-0.55,0.295-1.024,0.28-1.281-0.78c-0.266-1.101-0.211-2.2,0.371-2.888
			c1.021-1.209,2.071-2.339,3.111-3.497c0.693-0.772,1.378-1.572,2.088-2.29c0.563-0.568,0.725-1.322,0.553-2.483
			c-0.446-3.006-0.853-6.029-1.336-9.474c-0.412,0.848-0.77,1.434-1.029,2.143c-1.277,3.485-3.356,4.651-5.582,4.959
			c-2.523,0.349-4.526-0.833-6.199-4.476c-0.887-1.932-1.651-4.051-2.497-6.151c-1.129,2.147-2.242,4.157-3.287,6.278
			c-1.496,3.036-3.261,3.755-5.785,4.349c-1.983,0.209-3.296,0.087-4.491-2.515c-0.697-1.517-1.264-3.433-1.553-5.322
			c-0.544-3.559-0.879-7.218-1.236-10.853c-0.544-5.542-1.101-11.085-1.523-16.653c-0.353-4.652-0.546-9.337-0.752-14.013
			c-0.054-1.234,0.077-2.495,0.173-3.728c0.081-1.033,0.457-1.378,1.002-1.033c1.048,0.665,1.731,1.863,1.867,3.99
			c0.39,6.084,0.795,12.166,1.221,18.244c0.444,6.329,0.819,12.68,1.431,18.966c0.234,2.407,1,4.697,1.62,6.957
			c0.134,0.488,0.683,0.875,1.033,0.876c2.899,0.008,5.214-1.868,6.617-6.69c0.613-2.108,1.331-4.113,2.019-6.143
			c0.213-0.628,0.448-1.256,0.738-1.762c0.917-1.606,1.979-1.065,2.542,1.054c0.745,2.803,1.544,5.569,2.402,8.268
			c1.453,4.572,3.749,5.152,6.128,3.864c1.582-0.857,2.707-3.047,3.673-5.556c1.022-2.652,0.615-5.34,0.331-8.135
			c-0.277-2.724-0.535-5.457-0.737-8.198c-0.357-4.828,0.356-9.221,1.45-13.478c0.795-3.09,2.228-4.813,3.901-4.057
			c1.668,0.754,2.534,2.564,2.739,6.517c0.233,4.487-0.357,8.753-0.971,13.021c-0.568,3.946-1.44,7.642-2.363,11.302
			c-0.294,1.168-0.233,2.208-0.107,3.38c0.343,3.202,0.638,6.418,0.979,9.621C254.569,57.035,254.76,57.982,254.967,59.302z
			 M251.888,35.556c1-3.667,1.911-6.787,2.215-10.327c0.106-1.237-0.069-2.638-0.275-3.886c-0.094-0.571-0.544-1.086-0.891-1.346
			c-0.117-0.087-0.481,0.625-0.621,1.088C250.993,25.475,250.738,30.076,251.888,35.556z M268.841,46.026
			c0.11,0.096,0.219,0.192,0.329,0.288c0.989-1.393,1.979-2.785,2.967-4.181c0.319-0.451,0.788-0.996,0.444-1.76
			c-0.227-0.505-0.812-0.873-1.162-0.738c-1.29,0.497-2.096,2.182-2.609,4.279C268.67,44.489,268.823,45.315,268.841,46.026z"/>
	</g>
	<path d="M172.853,46.651c-0.625,2.128-1.152,5.917-1.685,7.624c-0.621,1.989-1.704,2.985-2.822,3.634
		c-1.07,0.62-2.1-0.034-2.834-1.764c-0.568-1.339-1.043-4.792-1.698-6.475c-0.846,1.575-1.633,3.222-2.525,4.652
		c-1.054,1.501-1.376,1.934-2.563,2.825c-2.465,2.05-5.242,1.188-7.614-1.263c-2.373-2.451-4.073-4.981-5.392-9.236
		c-0.285-0.921-0.519-1.464-1.163-1.205c-0.654,0.263-1.183-0.412-1.469-1.487c-0.321-1.21-0.397-2.692,0.163-3.501
		c0.848-1.224,0.737-2.407,0.298-3.905c-0.169-0.575-0.215-1.264-0.581-1.989c-0.298,2.457-0.561,4.933-0.903,7.367
		c-0.516,3.677-0.941,11.401-2.52,14.178c-1.917,3.371-3.133,2.729-4.874-1.186c-0.086-0.193-1.487-4.019-1.647-4.309
		c-0.288,0.786,0.014,2.527-0.516,4.304c-1.206,3.242-2.721,4.029-4.752,2.417c-1.332-1.057-2.35-4.41-2.925-7.473
		c-0.172-0.95-0.397-1.628-0.681-2.721c-0.301,1.01-0.559,1.763-0.76,2.566c-0.638,2.542-1.592,4.548-2.865,6.109
		c-3.008,3.687-5.156,3.069-7.215-2.029c-0.246-0.609-0.475-1.24-0.805-2.105c-0.515,0.504-1.012,1.016-1.521,1.482
		c-1.251,1.146-2.309,0.855-3.13-0.832c-0.65-1.336-0.529-2.47,0.383-3.064c0.465-0.303,0.977-0.388,1.47-0.548
		c1.634-0.532,1.843-1.098,1.543-3.992c-0.146-1.403-0.288-2.82-0.337-4.235c-0.172-4.981,0.99-9.058,2.596-12.722
		c0.794-1.813,2.016-2.424,3.23-1.618c1.282,0.85,2.184,2.622,2.262,5.294c0.129,4.399-0.749,8.132-2.209,11.432
		c-0.652,1.473-1.339,2.892-2.021,4.32c-0.324,0.679-0.769,1.272-0.459,2.36c0.304,1.067,0.816,1.671,1.455,1.701
		c1.306,0.06,2.567-0.375,3.657-1.648c0.558-0.651,1.106-1.499,1.466-2.496c1.614-4.463,3.237-8.926,4.699-13.562
		c0.874-2.773,2.064-4.806,3.557-6.224c0.475-0.451,1.262-0.244,1.836,0.098c1.546,0.922,2.392,4.006,1.87,6.422
		c-0.444,2.055-1.186,2.509-2.259,1.38c-0.121-0.127-0.239-0.263-0.357-0.398c-0.376-0.428-0.939-1.373-1.091-1.192
		c-0.492,0.582-0.913,1.487-1.216,2.43c-1.132,3.53-0.934,7.53-0.884,11.451c0.009,0.711,0.193,1.479,0.398,2.115
		c0.25,0.98,1.158,1.762,1.339,1.673c0.888-0.437,1.083-2.128,1.384-3.931c0.248-1.484,0.43-3.009,0.614-4.529
		c0.158-1.303,0.224-2.737,1.093-3.114c0.605-0.262,1.174,0.821,1.524,2.783c0.186,1.042,0.297,2.127,0.501,3.156
		c0.353,1.778,1.762,5.128,2.852,5.289c1.142,0.169,1.494-2.079,1.937-4.339c0.653-3.334,1.375-6.671,1.749-10.139
		c0.49-4.55,0.693-9.223,0.968-13.856c0.092-1.551-0.03-3.155,0.044-4.714c0.09-1.915,0.762-2.408,1.57-1.071
		c0.412,0.681,0.703,1.76,0.872,2.75c0.868,5.07,1.672,10.174,2.517,15.257c0.169,1.019,0.419,1.998,0.673,3.187
		c1.906-1.77,3.663-3.442,5.444-5.026c0.433-0.385,0.939-0.562,1.426-0.688c0.609-0.157,1.085,0.383,1.353,1.399
		c0.281,1.064-0.059,1.809-0.487,2.316c-1.241,1.473-2.501,2.896-3.772,4.282c-0.384,0.419-0.851,0.591-1.246,0.984
		c-2.009,1.996-1.621,1.871-0.867,5.135c0.283,1.224,0.71,2.394,1.183,3.422c1.111,2.416,2.276,3.229,4.258,3.322
		c1.532-0.117,2.458-0.553,3.625-1.179c0.754-0.405,1.505-1.252,2.059-2.262c1.053-1.918,1.965-4.112,2.391-6.803
		c0.146-0.923,0.126-1.956,0.13-2.943c0.004-0.86-0.045-1.708,0.515-2.056c0.563-0.349,0.967-0.011,1.27,0.946
		c0.766,2.414,1.532,4.828,2.331,7.207c0.45,1.34,1.402,3.748,1.914,5.116c0.899-1.364,0.673-4.127,0.88-5.734
		c0.313-2.421,0.586-4.861,0.899-7.283c0.082-0.636,0.195-1.294,0.382-1.837c0.633-1.843,1.261-1.794,1.942,0.11
		c0.28,0.782,0.596,1.549,0.792,2.397c0.93,4.013,2.449,7.388,4.344,10.104c0.766-2.83,1.032-6.628,0.801-9.454
		c-0.545-11.119-1.916-15.422-2.979-16.811c-1.699-3.267-5.095-2.779-7.724-1.576c-0.528,0.242-2.606,0.808-2.836-0.227
		c-0.258-1.161,2.13-2.949,5.875-3.609c2.244,0,3.07,0.046,4.158,0.66c1.315,0.743,2.364,1.979,3.1,4.213
		c1.699,5.159,2.804,8.267,2.957,14.297c0.084,3.332,0.613,6.661,0.209,9.994c-0.062,2.777-0.756,7.473-1.102,9.607
		c-0.302,1.863-0.44,2.438-1.447,1.874c-1.339-1.157-1.85-1.942-2.908-4.299C175.369,52.34,173.481,47.96,172.853,46.651z
		 M113.966,42.461c0.974-1.953,1.78-4.001,2.118-6.518c0.065-0.486-0.101-1.088-0.161-1.637c-0.314,0.206-0.733,0.245-0.923,0.647
		C113.993,37.078,113.744,39.657,113.966,42.461z"/>
	<g>
		<path d="M23.593,28.664c-1.534,6.641-2.295,13.59-2.697,20.693c-0.132,2.327-0.316,3.862-0.57,6.158
			c-0.078,0.705-0.396,1.564-0.735,1.9c-0.567,0.562-0.841-0.558-0.999-1.208c-0.476-1.958-0.969-3.157-1.235-5.238
			c-0.751-5.871-1.947-11.411-3.328-16.833c-0.035-0.136-0.123-0.225-0.267-0.478c-1.064,1.862-1.666,4.18-1.993,6.691
			c-0.595,4.568-1.103,9.171-1.65,13.758c-0.278,2.338-0.619,3.071-1.453,3.145c-1.181,0.104-2.003-0.949-2.209-3.158
			C5.93,48.433,5.475,42.747,4.971,37.078c-0.227-2.547-0.529-5.07-0.747-7.62c-0.097-1.135-0.161-2.329-0.076-3.462
			c0.135-1.8,0.955-2.475,1.673-1.28c0.539,0.898,1.039,2.183,1.203,3.461c0.569,4.442,0.984,8.956,1.459,13.442
			c0.047,0.445,0.097,0.89,0.202,1.847c0.428-2.491,0.689-4.503,1.118-6.393c0.686-3.028,1.383-6.076,2.261-8.932
			c1.013-3.296,2.411-3.271,3.424-0.003c0.574,1.852,0.983,3.904,1.355,5.939c0.499,2.73,0.891,5.53,1.328,8.3
			c0.114,0.011,0.227,0.023,0.341,0.034c0.131-0.984,0.273-1.965,0.392-2.953c0.713-5.911,1.391-11.848,2.853-17.364
			c0.349-1.318,0.889-2.551,1.473-3.572c0.733-1.281,1.68-1.147,2.271,0.335c0.41,1.027,0.716,2.317,0.845,3.575
			c0.503,4.911,0.865,9.878,1.382,14.783c0.404,3.833,0.836,7.682,1.482,11.384c0.683,3.912,2.33,5.267,4.428,3.98
			c0.455-0.279,0.913-1.875,1.165-2.652c0.394-1.217,0.59-8.179,0.91-9.48c0.639-2.596,1.17-2.553,2.197-0.475
			c0.333,0.673,0.543,4.217,0.891,5.494c1.188,7.822,2.92,8.167,4.405,1.801c0.464-1.611,0.655-5.854,0.953-7.614
			c0.067-0.397,0.04-0.842,0.103-1.243c0.146-0.943,0.161-2.277,0.862-2.268c0.413,0.006,0.915,0.641,1.197,1.267
			c0.572,1.27,1.028,5.093,1.518,6.483c1.027,2.914,2.029,5.859,3.071,8.753c1.09,3.027,2.427,5.817,3.285,9.051
			c2.074,7.814,2.474,14.836-1.12,22.105c-1.326,2.681-2.976,4.817-4.888,6.086c-0.708,0.568-1.296,1.011-2.226,1.476
			c-1.815,0.907-2.768,0.941-4.372,1.27c-3.168,0.148-6.461-0.934-9.356-4.129c-0.348-0.384-0.7-0.758-1.052-1.129
			c-1.248-1.31-2.289-2.969-2.802-5.524c-0.546-2.716-1.177-5.385-1.612-8.164c-0.296-1.895,0.304-3.335,1.246-3.376
			c0.355-0.015,0.876,0.281,1.033,0.759c0.457,1.395,0.892,2.89,1.113,4.459c0.823,3.708,1.19,4.991,2.753,7.453
			c0.761,1.198,2.184,2.391,5.048,3.514c2.524,0.99,3.702,0.984,5.323,0.308c2.617-1.09,5.128-2.723,7.15-6.268
			c1.181-2.071,1.941-4.374,2.063-7.454c0.174-4.399,0.412-8.018-1.073-12.274c-0.742-2.722-3.653-8.362-4.889-12.232
			c-0.606,1.735-1.075,3.243-1.631,4.637c-1.459,3.658-2.88,4.719-4.833,3.571c-0.639-0.375-1.23-1.024-1.822-1.618
			c-0.355-0.356-0.963-1.247-1.377-1.783c-0.447,0.714-0.607,1.018-1.043,1.751c-1.748,2.934-3.817,2.585-5.844,1.927
			c-0.772-0.25-1.382-1.347-1.814-2.785c-0.664-2.209-1.215-3.649-1.394-6.177c-0.035-0.495-0.099-0.984-0.166-1.468
			c-0.677-4.912-1.349-9.826-2.043-14.729c-0.164-1.163-0.404-2.286-0.61-3.428C23.836,28.539,23.714,28.602,23.593,28.664z"/>
	</g>
	<path d="M95.865,40.085c0.204-0.42,0.321-0.57,0.369-0.777c1.086-4.689,3.061-7.673,5.588-9.539c1.385-1.023,2.797-1.946,4.219-2.8
		c0.401-0.241,0.909-0.275,1.32-0.063c1.487,0.768,1.8,2.847,0.639,4.606c-0.713,1.08-1.642,1.682-2.447,2.576
		c-1.576,1.75-3.331,3.17-4.655,5.42c-2.347,3.988-3.528,7.976-2.643,14.014c0.217,1.481,0.279,2.827-0.446,3.849
		c-1.069,1.507-2.535,0.73-3.006-1.724c-0.486-2.534-0.638-3.961-1.054-6.535c-0.117-0.724-0.208-1.46-0.392-2.769
		c-0.407,1.149-0.705,1.901-0.953,2.704c-1.648,5.325-4.241,6.492-7.335,8.107c-2.57,1.342-5.336,0.98-8.108-0.505
		c-2.402-1.515-5.289-3.657-5.877-7.672c-0.398-2.713-0.635-5.702-0.443-8.422c0.523-7.438,1.458-14.731,2.988-21.667
		c0.308-1.397,0.873-2.709,1.486-3.725c1.171-1.939,2.514-2.085,3.738-0.198c1.049,1.616,1.982,3.576,2.776,5.624
		c0.591,1.525,0.408,3.06-0.095,3.62c-0.586,0.653-1.412,0.22-2.092-1.11c-0.44-0.861-0.854-1.769-1.313-2.593
		c-0.518-0.929-1.002-0.679-1.397,0.254c-0.162,0.384-0.322,0.814-0.398,1.274c-0.614,3.706-1.446,7.349-1.748,11.16
		c-0.371,4.684-0.875,9.514,0.209,14.276c1.016,4.461,4.098,5.829,7.065,5.27c2.681-0.505,3.837-0.919,6.163-3.264
		c1.541-1.554,2.57-3.83,3.149-6.824c0.347-1.794,0.643-3.624,0.979-5.426c0.35-1.876,0.789-2.548,1.603-2.535
		c0.681,0.011,1.341,1.01,1.68,2.643C95.597,38.121,95.69,38.951,95.865,40.085z"/>
	<path d="M196.393,52.924c1.927,0.015,3.132-0.362,4.501-1.717c0.655-0.766,0.749-1.532,1.147-2.289
		c0.277-0.526,0.399-1.358,0.704-1.79c0.316-0.448,0.831-0.94,1.147-0.746c0.32,0.196,0.556,1.168,0.725,1.877
		c0.097,0.409,0.045,1.009-0.037,1.46c-0.709,3.937-4.597,8.675-7.497,8.418c-3.558-0.315-6.077-1.731-8.059-7.17
		c-0.601-1.651-1.138-2.76-2.284-2.489c-0.437,0.103-0.935-0.042-1.356-0.334c-0.399-0.278-0.836-0.768-1.071-1.391
		c-0.41-1.087-0.203-2.204,0.483-2.142c1.986,0.18,2.743-2.197,3.362-4.86c0.803-3.453,2.434-5.189,4.108-6.834
		c1.514-1.487,3.082-1.325,4.579,0.347c0.401,0.448,0.826,1.272,0.946,2.056c0.463,3.027,0.348,5.681-1.083,7.912
		c-1.277,1.99-2.786,2.951-4.366,3.772c-0.482,0.25-1.193,0.681-1.291,1.318c-0.183,1.189,0.533,1.834,1.052,2.359
		C193.428,52.022,194.855,52.631,196.393,52.924z M190.61,41.951c0.088,0.185,0.176,0.37,0.265,0.555
		c0.697-0.666,1.399-1.32,2.091-2.004c0.38-0.376,0.706-0.906,0.462-1.787c-0.256-0.928-0.696-0.97-1.181-0.629
		C191.257,38.781,190.86,40.261,190.61,41.951z"/>
	<path d="M235.669,20.492c1.211-0.046,2.374,2.004,2.452,4.319c0.06,1.781-1.152,3.821-2.277,3.832
		c-1.242,0.013-2.226-1.824-2.275-4.245C233.523,22.147,234.388,20.54,235.669,20.492z"/>
	<path d="M161.397,32.091c-0.744-0.032-1.387-0.551-1.798-1.847c-0.305-0.96-0.366-2.012,0.046-2.781
		c0.612-1.142,1.392-1.817,2.325-1.417c0.903,0.387,1.498,1.796,1.433,3.24C163.347,30.551,162.318,32.016,161.397,32.091z"/>
</g>
</svg>
